<?xml version="1.0" encoding="utf-8"?>
<!-- Generator: Adobe Illustrator 16.0.0, SVG Export Plug-In . SVG Version: 6.00 Build 0)  -->
<!DOCTYPE svg PUBLIC "-//W3C//DTD SVG 1.1//EN" "http://www.w3.org/Graphics/SVG/1.1/DTD/svg11.dtd">
<svg version="1.1" id="Calque_1" xmlns="http://www.w3.org/2000/svg" xmlns:xlink="http://www.w3.org/1999/xlink" x="0px" y="0px"
	 width="211px" height="154px" viewBox="0 0 211 154" enable-background="new 0 0 211 154" xml:space="preserve">
<g>
	<g>
		<circle cx="83.989" cy="66.406" r="43.988"/>
		<path d="M83.989,112.183c-25.241,0-45.776-20.536-45.776-45.776c0-25.241,20.535-45.776,45.776-45.776
			c25.241,0,45.776,20.535,45.776,45.776C129.765,91.647,109.229,112.183,83.989,112.183z M83.989,24.207
			c-23.269,0-42.2,18.931-42.2,42.2c0,23.27,18.931,42.2,42.2,42.2c23.27,0,42.2-18.93,42.2-42.2
			C126.188,43.138,107.258,24.207,83.989,24.207z"/>
	</g>
	<g>
		<circle cx="47.635" cy="106.974" r="24.153"/>
		<path d="M47.634,132.914c-14.303,0-25.94-11.637-25.94-25.94c0-14.305,11.637-25.941,25.94-25.941
			c14.305,0,25.941,11.637,25.941,25.941C73.575,121.277,61.938,132.914,47.634,132.914z M47.634,84.609
			c-12.332,0-22.363,10.033-22.363,22.365c0,12.331,10.032,22.364,22.363,22.364c12.332,0,22.365-10.033,22.365-22.364
			C69.999,94.642,59.966,84.609,47.634,84.609z"/>
	</g>
	<g>
		<circle fill="#FFFFFF" cx="103.999" cy="78.055" r="56.365"/>
		<path d="M104,137.401c-32.724,0-59.346-26.623-59.346-59.346c0-32.724,26.623-59.346,59.346-59.346
			c32.723,0,59.346,26.623,59.346,59.346C163.345,110.778,136.723,137.401,104,137.401z M104,24.67
			c-29.437,0-53.385,23.948-53.385,53.385c0,29.437,23.948,53.385,53.385,53.385c29.437,0,53.385-23.948,53.385-53.385
			C157.384,48.618,133.436,24.67,104,24.67z"/>
	</g>
	<g>
		<circle fill="#FFFFFF" cx="145.207" cy="75.871" r="34.522"/>
		<path d="M145.207,112.183c-20.022,0-36.311-16.29-36.311-36.312c0-20.021,16.288-36.311,36.311-36.311
			c20.022,0,36.311,16.289,36.311,36.311C181.518,95.893,165.229,112.183,145.207,112.183z M145.207,43.137
			c-18.05,0-32.734,14.685-32.734,32.734c0,18.05,14.684,32.735,32.734,32.735s32.734-14.685,32.734-32.735
			C177.941,57.821,163.257,43.137,145.207,43.137z"/>
	</g>
	<g>
		<circle fill="#FFFFFF" cx="145.207" cy="65.977" r="22.728"/>
		<path d="M145.207,90.493c-13.519,0-24.517-10.998-24.517-24.517c0-13.518,10.998-24.515,24.517-24.515
			c13.517,0,24.515,10.998,24.515,24.515C169.722,79.495,158.724,90.493,145.207,90.493z M145.207,45.038
			c-11.546,0-20.94,9.393-20.94,20.938c0,11.546,9.394,20.94,20.94,20.94c11.545,0,20.938-9.394,20.938-20.94
			C166.146,54.431,156.752,45.038,145.207,45.038z"/>
	</g>
	<g>
		<circle fill="#FFFFFF" cx="85.604" cy="81.313" r="25.66"/>
		<path d="M85.604,108.762c-15.135,0-27.448-12.313-27.448-27.449s12.313-27.449,27.448-27.449
			c15.136,0,27.449,12.313,27.449,27.449S100.739,108.762,85.604,108.762z M85.604,57.44c-13.163,0-23.871,10.709-23.871,23.873
			c0,13.164,10.708,23.873,23.871,23.873c13.164,0,23.873-10.709,23.873-23.873C109.476,68.149,98.767,57.44,85.604,57.44z"/>
	</g>
	<g>
		<circle cx="87.83" cy="82.289" r="6.416"/>
		<path d="M87.83,90.493c-4.523,0-8.205-3.68-8.205-8.205c0-4.525,3.681-8.206,8.205-8.206c4.524,0,8.205,3.681,8.205,8.206
			C96.035,86.813,92.354,90.493,87.83,90.493z M87.83,77.659c-2.552,0-4.628,2.077-4.628,4.629c0,2.552,2.076,4.628,4.628,4.628
			c2.552,0,4.628-2.076,4.628-4.628C92.458,79.736,90.382,77.659,87.83,77.659z"/>
	</g>
	<g>
		<circle cx="40.001" cy="99.601" r="24.152"/>
		<path d="M40.001,125.542c-14.303,0-25.94-11.637-25.94-25.94c0-14.304,11.637-25.941,25.94-25.941
			c14.304,0,25.941,11.637,25.941,25.941C65.942,113.905,54.305,125.542,40.001,125.542z M40.001,77.236
			c-12.332,0-22.364,10.033-22.364,22.365c0,12.331,10.032,22.364,22.364,22.364c12.332,0,22.365-10.033,22.365-22.364
			C62.366,87.269,52.333,77.236,40.001,77.236z"/>
	</g>
	<g>
		<circle cx="146.13" cy="70.713" r="4.736"/>
		<path d="M146.13,77.236c-3.598,0-6.525-2.926-6.525-6.523c0-3.598,2.927-6.524,6.525-6.524s6.523,2.927,6.523,6.524
			C152.654,74.31,149.728,77.236,146.13,77.236z M146.13,67.765c-1.625,0-2.948,1.323-2.948,2.948s1.323,2.947,2.948,2.947
			c1.625,0,2.947-1.322,2.947-2.947S147.755,67.765,146.13,67.765z"/>
	</g>
</g>
</svg>
