<?xml version="1.0" encoding="utf-8"?>
<!-- Generator: Adobe Illustrator 16.0.0, SVG Export Plug-In . SVG Version: 6.00 Build 0)  -->
<!DOCTYPE svg PUBLIC "-//W3C//DTD SVG 1.1//EN" "http://www.w3.org/Graphics/SVG/1.1/DTD/svg11.dtd">
<svg version="1.1" id="Calque_1" xmlns="http://www.w3.org/2000/svg" xmlns:xlink="http://www.w3.org/1999/xlink" x="0px" y="0px"
	 width="198px" height="143px" viewBox="0 0 198 143" enable-background="new 0 0 198 143" xml:space="preserve">
<g>
	<g>
		<circle fill="#FFFFFF" stroke="#FFFFFF" stroke-miterlimit="10" cx="84.783" cy="58.572" r="43.988"/>
		<path fill="#FFFFFF" stroke="#FFFFFF" stroke-miterlimit="10" d="M84.783,104.349c-25.241,0-45.776-20.537-45.776-45.776
			c0-25.241,20.535-45.776,45.776-45.776c25.242,0,45.777,20.535,45.777,45.776C130.56,83.812,110.022,104.349,84.783,104.349z
			 M84.783,16.373c-23.269,0-42.2,18.931-42.2,42.2c0,23.27,18.931,42.2,42.2,42.2c23.27,0,42.201-18.931,42.201-42.2
			C126.981,35.304,108.052,16.373,84.783,16.373z"/>
	</g>
	<g>
		<circle fill="#FFFFFF" stroke="#FFFFFF" stroke-miterlimit="10" cx="48.429" cy="99.139" r="24.153"/>
		<path fill="#FFFFFF" stroke="#FFFFFF" stroke-miterlimit="10" d="M48.428,125.08c-14.303,0-25.94-11.637-25.94-25.939
			c0-14.306,11.637-25.941,25.94-25.941c14.305,0,25.941,11.637,25.941,25.941C74.369,113.443,62.732,125.08,48.428,125.08z
			 M48.428,76.775c-12.332,0-22.363,10.033-22.363,22.365c0,12.33,10.032,22.363,22.363,22.363
			c12.332,0,22.365-10.033,22.365-22.363C70.793,86.808,60.76,76.775,48.428,76.775z"/>
	</g>
	<g>
		<circle fill="#FFFFFF" stroke="#FFFFFF" stroke-miterlimit="10" cx="104.793" cy="70.22" r="56.365"/>
		<path fill="#FFFFFF" stroke="#FFFFFF" stroke-miterlimit="10" d="M104.794,129.566c-32.724,0-59.346-26.623-59.346-59.346
			c0-32.724,26.623-59.346,59.346-59.346c32.723,0,59.346,26.623,59.346,59.346S137.517,129.566,104.794,129.566z M104.794,16.835
			c-29.437,0-53.385,23.948-53.385,53.385c0,29.438,23.948,53.385,53.385,53.385c29.438,0,53.385-23.947,53.385-53.385
			C158.178,40.784,134.229,16.835,104.794,16.835z"/>
	</g>
	<g>
		<circle fill="#FFFFFF" stroke="#FFFFFF" stroke-miterlimit="10" cx="146.001" cy="68.036" r="34.522"/>
		<path fill="#FFFFFF" stroke="#FFFFFF" stroke-miterlimit="10" d="M146.001,104.349c-20.021,0-36.311-16.291-36.311-36.313
			c0-20.021,16.287-36.311,36.311-36.311c20.021,0,36.311,16.289,36.311,36.311C182.312,88.058,166.022,104.349,146.001,104.349z
			 M146.001,35.303c-18.05,0-32.734,14.685-32.734,32.734c0,18.05,14.685,32.734,32.734,32.734s32.734-14.685,32.734-32.734
			C178.735,49.986,164.051,35.303,146.001,35.303z"/>
	</g>
	<g>
		<circle fill="#FFFFFF" stroke="#FFFFFF" stroke-miterlimit="10" cx="146.001" cy="58.143" r="22.728"/>
		<path fill="#FFFFFF" stroke="#FFFFFF" stroke-miterlimit="10" d="M146.001,82.659c-13.52,0-24.518-10.998-24.518-24.517
			c0-13.518,10.998-24.515,24.518-24.515c13.518,0,24.516,10.998,24.516,24.515C170.517,71.661,159.519,82.659,146.001,82.659z
			 M146.001,37.204c-11.546,0-20.939,9.393-20.939,20.938c0,11.545,9.394,20.94,20.939,20.94c11.545,0,20.938-9.395,20.938-20.94
			C166.94,46.597,157.546,37.204,146.001,37.204z"/>
	</g>
	<g>
		<circle fill="#FFFFFF" stroke="#FFFFFF" stroke-miterlimit="10" cx="86.398" cy="73.478" r="25.66"/>
		<path fill="#FFFFFF" stroke="#FFFFFF" stroke-miterlimit="10" d="M86.398,100.927c-15.135,0-27.448-12.313-27.448-27.449
			c0-15.136,12.313-27.448,27.448-27.448c15.136,0,27.449,12.313,27.449,27.448C113.847,88.615,101.532,100.927,86.398,100.927z
			 M86.398,49.605c-13.163,0-23.871,10.709-23.871,23.873c0,13.164,10.708,23.873,23.871,23.873
			c13.164,0,23.873-10.709,23.873-23.873C110.271,60.314,99.561,49.605,86.398,49.605z"/>
	</g>
	<g>
		<circle fill="#FFFFFF" stroke="#FFFFFF" stroke-miterlimit="10" cx="88.624" cy="74.455" r="6.416"/>
		<path fill="#FFFFFF" stroke="#FFFFFF" stroke-miterlimit="10" d="M88.624,82.659c-4.523,0-8.205-3.681-8.205-8.205
			s3.681-8.206,8.205-8.206s8.205,3.682,8.205,8.206S93.148,82.659,88.624,82.659z M88.624,69.825c-2.552,0-4.628,2.077-4.628,4.629
			s2.076,4.628,4.628,4.628c2.552,0,4.628-2.076,4.628-4.628S91.176,69.825,88.624,69.825z"/>
	</g>
	<g>
		<circle fill="#FFFFFF" stroke="#FFFFFF" stroke-miterlimit="10" cx="40.795" cy="91.767" r="24.152"/>
		<path fill="#FFFFFF" stroke="#FFFFFF" stroke-miterlimit="10" d="M40.795,117.708c-14.303,0-25.94-11.637-25.94-25.94
			s11.637-25.94,25.94-25.94c14.304,0,25.941,11.637,25.941,25.94S55.099,117.708,40.795,117.708z M40.795,69.401
			c-12.332,0-22.364,10.034-22.364,22.366c0,12.33,10.032,22.363,22.364,22.363S63.16,104.097,63.16,91.767
			C63.16,79.435,53.127,69.401,40.795,69.401z"/>
	</g>
	<g>
		<circle fill="#FFFFFF" stroke="#FFFFFF" stroke-miterlimit="10" cx="146.924" cy="62.879" r="4.736"/>
		<path fill="#FFFFFF" stroke="#FFFFFF" stroke-miterlimit="10" d="M146.924,69.401c-3.598,0-6.524-2.926-6.524-6.523
			c0-3.598,2.927-6.524,6.524-6.524c3.599,0,6.522,2.927,6.522,6.524C153.448,66.476,150.522,69.401,146.924,69.401z
			 M146.924,59.931c-1.625,0-2.948,1.323-2.948,2.948s1.323,2.947,2.948,2.947s2.947-1.322,2.947-2.947
			S148.549,59.931,146.924,59.931z"/>
	</g>
</g>
</svg>
