<?xml version="1.0" encoding="utf-8"?>
<!-- Generator: Adobe Illustrator 16.0.0, SVG Export Plug-In . SVG Version: 6.00 Build 0)  -->
<!DOCTYPE svg PUBLIC "-//W3C//DTD SVG 1.1//EN" "http://www.w3.org/Graphics/SVG/1.1/DTD/svg11.dtd">
<svg version="1.1" id="Calque_1" xmlns="http://www.w3.org/2000/svg" xmlns:xlink="http://www.w3.org/1999/xlink" x="0px" y="0px"
	 width="511.145px" height="360.714px" viewBox="0 0 511.145 360.714" enable-background="new 0 0 511.145 360.714"
	 xml:space="preserve">
<g>
	<path fill="#FFFFFF" stroke="#FFFFFF" stroke-width="3" stroke-miterlimit="10" d="M236.991,24.439
		c-7.017-1.218-14.231-1.858-21.597-1.858c-69.272,0-125.429,56.158-125.429,125.431c0,30.293,10.74,58.077,28.619,79.754
		c-4.451-14.733-6.853-30.356-6.853-46.542C111.731,104.649,165.291,40.588,236.991,24.439z"/>
	<path fill="none" stroke="#FFFFFF" stroke-width="5" stroke-miterlimit="10" d="M118.584,227.766
		c19.958,66.07,81.29,114.184,153.869,114.184c88.766,0,160.721-71.958,160.721-160.726c0-88.76-71.955-160.718-160.721-160.718
		c-12.186,0-24.052,1.364-35.462,3.934"/>
</g>
<circle fill="#FFFFFF" stroke="#FFFFFF" stroke-width="3" stroke-miterlimit="10" cx="111.732" cy="263.683" r="68.869"/>
<circle fill="none" stroke="#FFFFFF" stroke-width="3" stroke-miterlimit="10" cx="389.953" cy="174.999" r="98.438"/>
<circle fill="none" stroke="#FFFFFF" stroke-width="3" stroke-miterlimit="10" cx="226.346" cy="212.162" r="98.437"/>
<g>
	<path fill="#FFFFFF" d="M219.999,117.347c-40.409,0-73.167,32.757-73.167,73.166c0,40.41,32.758,73.17,73.167,73.17
		c40.413,0,73.17-32.76,73.17-73.17C293.168,150.104,260.412,117.347,219.999,117.347z M226.346,211.595
		c-10.105,0-18.296-8.194-18.296-18.3s8.19-18.296,18.296-18.296s18.296,8.19,18.296,18.296S236.452,211.595,226.346,211.595z"/>
</g>
<path fill="#FFFFFF" stroke="#FFFFFF" stroke-width="3" stroke-miterlimit="10" d="M158.836,242.662
	c0,38.032-30.835,68.867-68.871,68.867c-38.032,0-68.867-30.835-68.867-68.867c0-38.033,30.835-68.868,68.867-68.868
	C128.001,173.794,158.836,204.629,158.836,242.662z"/>
<g>
	<path fill="#FFFFFF" d="M389.953,81.979c-35.793,0-64.809,29.016-64.809,64.808c0,35.791,29.016,64.808,64.809,64.808
		c35.791,0,64.803-29.017,64.803-64.808C454.756,110.995,425.744,81.979,389.953,81.979z M392.586,173.794
		c-7.461,0-13.506-6.049-13.506-13.505s6.045-13.502,13.506-13.502c7.455,0,13.502,6.046,13.502,13.502
		S400.041,173.794,392.586,173.794z"/>
</g>
</svg>
